PathFileType	4	(X/Y/Z)	./resultDataOpenSim/trcMotMarkerGrf/sub09/qtm-02-07.trc
DataRate	CameraRate	NumFrames	NumMarkers	Units	OrigDataRate	OrigDataStartFrame	OrigNumFrames
250.000000	250.000000	9	24	m	250.000000	425	485
Frame#	Time	L.Toe.Tip			R.Toe.Tip			L.Ankle.Lat			R.Ankle.Lat			L.Ankle.Med			R.Ankle.Med			L.Heel			R.Heel			L.Knee.Lat			R.Knee.Lat			L.Knee.Med			R.Knee.Med			L.Thigh.Upper			R.Thigh.Upper			L.ASIS			R.ASIS			V.Sacral			L.Acromium			R.Acromium			C7			L.Elbow			R.Elbow			L.Wrist.Lat			R.Wrist.Lat
		X1	Y1	Z1	X2	Y2	Z2	X3	Y3	Z3	X4	Y4	Z4	X5	Y5	Z5	X6	Y6	Z6	X7	Y7	Z7	X8	Y8	Z8	X9	Y9	Z9	X10	Y10	Z10	X11	Y11	Z11	X12	Y12	Z12	X13	Y13	Z13	X14	Y14	Z14	X15	Y15	Z15	X16	Y16	Z16	X17	Y17	Z17	X18	Y18	Z18	X19	Y19	Z19	X20	Y20	Z20	X21	Y21	Z21	X22	Y22	Z22	X23	Y23	Z23	X24	Y24	Z24

425	1.696	1.7950859	0.076825891	-0.056164866	1.0503336	0.041478934	0.073291915	1.6400627	0.076210584	-0.093721637	0.92547969	0.11079201	0.1144905	1.6624425	0.10165496	-0.00028311907	0.95354958	0.14357959	0.023895826	1.5822495	0.02556353	-0.044063023	0.85505181	0.12132094	0.061456477	1.5355492	0.48167729	-0.12578906	1.2127628	0.48208835	0.17836496	1.5430378	0.47610461	-0.00035974916	1.1993122	0.46988762	0.048549863	1.3496498	0.85584936	-0.15800186	1.2760438	0.87330565	0.20728956	1.4172843	0.94819122	-0.089623351	1.3968163	0.95446772	0.15249583	1.2369769	0.99516776	0.0069998688	1.3434332	1.3990777	-0.15916838	1.3387773	1.4192691	0.17297673	1.2708807	1.4527442	0.006002143	1.2033967	1.0612622	-0.18717963	1.2694034	1.0467601	0.26104951	1.2702602	0.82207712	-0.26579845	1.521989	0.92658353	0.23991891
426	1.7	1.7980769	0.072377511	-0.054795447	1.0508681	0.041736549	0.073556449	1.642959	0.075836996	-0.093840572	0.9285132	0.11353319	0.11564275	1.6654715	0.1007318	-0.00029111587	0.95647902	0.14577567	0.024654789	1.5837431	0.026741748	-0.044255907	0.85766395	0.1254302	0.062048339	1.5421851	0.48199978	-0.12633802	1.2164984	0.48119023	0.1791918	1.5501844	0.47635552	-0.00070401305	1.2066456	0.46853568	0.048652904	1.3568193	0.8555363	-0.15869192	1.2829662	0.87201622	0.20652796	1.4238561	0.94811176	-0.090107186	1.4038135	0.95349841	0.15195814	1.2435849	0.99472224	0.0066521458	1.3492402	1.3984699	-0.15990597	1.3447197	1.4185824	0.17238486	1.2768043	1.4522321	0.0053153998	1.2091491	1.0606128	-0.18778977	1.2753497	1.0460713	0.26043378	1.2760206	0.82142683	-0.26635553	1.527621	0.92551747	0.2396127
427	1.704	1.8006836	0.068499794	-0.053423038	1.0514299	0.041954905	0.07393432	1.6459039	0.075496936	-0.094159497	0.93107756	0.11629369	0.11656157	1.6682005	0.099935226	-0.00048116493	0.95961937	0.14803799	0.025458078	1.5853011	0.02776551	-0.044950336	0.86053464	0.12972284	0.062677783	1.5490195	0.48278849	-0.1268519	1.2208141	0.48038994	0.17991001	1.5573221	0.47699113	-0.0010173596	1.214104	0.46722773	0.048678518	1.3641429	0.85537141	-0.1593725	1.2900613	0.8706666	0.20578037	1.4303574	0.9481199	-0.090598924	1.4108002	0.95257783	0.15141818	1.2501557	0.99436613	0.0063691244	1.3550485	1.3979277	-0.16064954	1.3506645	1.4179707	0.17180363	1.2827627	1.4518165	0.0046193056	1.2149494	1.0600061	-0.18840845	1.2812921	1.0454427	0.25976854	1.281871	0.8208175	-0.26688583	1.5331615	0.92441221	0.23932911
428	1.708	1.8029819	0.064752546	-0.052015233	1.0520525	0.04215589	0.074367263	1.6488216	0.075177151	-0.094597835	0.93326665	0.11920355	0.11721853	1.6706257	0.099193951	-0.00076814514	0.96298916	0.15037564	0.026298419	1.5867818	0.028797161	-0.046201104	0.86368182	0.13420201	0.063301493	1.5565027	0.48392913	-0.12719719	1.2283058	0.47962013	0.18010343	1.5643929	0.47797991	-0.0013333011	1.221982	0.46581956	0.048929573	1.3715716	0.85541728	-0.16006884	1.297414	0.8692786	0.20502427	1.4368083	0.94824919	-0.091104986	1.4177678	0.95171619	0.15086719	1.2566814	0.99407727	0.0061200818	1.3608571	1.3974637	-0.16138581	1.3566041	1.4174433	0.17123049	1.2887459	1.4514615	0.0039379045	1.2207941	1.0594561	-0.18902462	1.2872392	1.0448964	0.2590532	1.2878091	0.82026546	-0.26738352	1.5386149	0.92328542	0.23906337
429	1.712	1.805033	0.060783987	-0.050688693	1.0527571	0.042375443	0.074752991	1.6515927	0.074849899	-0.095111439	0.9355796	0.12238717	0.1177433	1.672813	0.098451442	-0.0011000042	0.96659778	0.15279499	0.027166002	1.5880764	0.029982682	-0.047945249	0.86711599	0.13887023	0.063882807	1.5648588	0.48521295	-0.12733108	1.2393192	0.47882611	0.1797803	1.5713522	0.47920859	-0.0016834371	1.2303966	0.46432017	0.049525907	1.379015	0.85571162	-0.16076713	1.305014	0.86789228	0.20423418	1.4432363	0.94852774	-0.091633479	1.4247078	0.95092001	0.15029437	1.2631427	0.9938274	0.0058633009	1.3666692	1.3970806	-0.16211091	1.3625347	1.4170107	0.17065556	1.2947189	1.4511336	0.0032641419	1.2266708	1.0589756	-0.18964361	1.2931795	1.0444543	0.25829885	1.2938384	0.81978583	-0.26784739	1.5440087	0.92215754	0.23880485
430	1.716	1.8068688	0.056542704	-0.049560137	1.0535161	0.042630454	0.074970072	1.6541295	0.074468377	-0.095652233	0.93829775	0.12584383	0.11824263	1.6748631	0.097697557	-0.0014180138	0.97044819	0.15529998	0.028055001	1.5891805	0.031285379	-0.049854859	0.87084084	0.1437426	0.064409126	1.5736701	0.48645282	-0.12735903	1.2509199	0.47797371	0.17954712	1.5781658	0.48053175	-0.0020812595	1.2391416	0.46283378	0.050304365	1.386366	0.85626179	-0.16143606	1.3126217	0.86657938	0.20347279	1.4496626	0.94896603	-0.092193409	1.4316097	0.9501975	0.14968783	1.2695582	0.99358273	0.0055960869	1.3724889	1.3967732	-0.16281911	1.3684558	1.4166775	0.17007086	1.3006469	1.450822	0.0025821583	1.2325703	1.0585755	-0.19027757	1.2990909	1.0441274	0.25751088	1.2999645	0.81938466	-0.26828082	1.549383	0.92103694	0.23854234
431	1.72	1.8085349	0.052314686	-0.04861319	1.054267	0.042915296	0.074939678	1.6564582	0.074012603	-0.096102731	0.94139198	0.12949868	0.11874247	1.6768125	0.096939425	-0.00160493	0.97453951	0.15790468	0.028966292	1.5901791	0.032500401	-0.051490714	0.87485583	0.14885165	0.064882135	1.5823087	0.48752391	-0.12742144	1.260225	0.47702548	0.17993767	1.5847461	0.48177808	-0.002525747	1.2479719	0.4613971	0.051062488	1.3935619	0.85704255	-0.16207708	1.3196569	0.86546897	0.20300011	1.4560892	0.94955368	-0.09278803	1.4384619	0.9495528	0.14903946	1.2759862	0.99332132	0.0053786664	1.3783215	1.3965327	-0.16349975	1.3743661	1.4164395	0.16947538	1.3065212	1.4505316	0.0018975048	1.2384971	1.0582562	-0.1909292	1.3049538	1.0439259	0.256695	1.3061914	0.8190565	-0.2686886	1.5547358	0.91990063	0.2382768
432	1.724	1.8100869	0.048548508	-0.047772021	1.0549603	0.0432255	0.074735638	1.6586901	0.073513688	-0.09627851	0.94473968	0.13329861	0.11920238	1.6785917	0.096178433	-0.0015126752	0.9788738	0.1606382	0.029903381	1.5911463	0.033446583	-0.052624186	0.87915997	0.15423053	0.065310571	1.5904461	0.48833946	-0.12757909	1.2676411	0.4759595	0.18077488	1.5909061	0.48274528	-0.0030173907	1.2568401	0.45996094	0.051739873	1.4005953	0.85800005	-0.16272725	1.3253984	0.8647287	0.20325456	1.4625083	0.95026065	-0.093411949	1.4452657	0.9489765	0.14835014	1.2824548	0.99304338	0.0052630522	1.3841748	1.3963473	-0.16414359	1.3802706	1.4162862	0.16887071	1.3123513	1.4502646	0.0012379131	1.2444637	1.0580046	-0.19158415	1.3107684	1.0438589	0.25587753	1.3125256	0.8187929	-0.26907599	1.5599791	0.9186982	0.23803136
433	1.728	1.8115341	0.045603055	-0.047007657	1.0556102	0.043590907	0.074551643	1.660872	0.073028235	-0.09603397	0.9483156	0.13722115	0.11959348	1.6800971	0.095417188	-0.0010493225	0.98345151	0.16353647	0.030854962	1.5920749	0.03408859	-0.053254954	0.88375795	0.15987615	0.065710977	1.5980315	0.48884857	-0.12781545	1.2754834	0.47481981	0.18152624	1.5964623	0.48325089	-0.0035511515	1.2658362	0.45848462	0.052393077	1.4074769	0.85906017	-0.16341974	1.3299374	0.86437485	0.20440675	1.4689175	0.95104415	-0.094055947	1.452039	0.94845161	0.14762812	1.2889305	0.99275947	0.0052317177	1.3900534	1.3962076	-0.16474646	1.3861819	1.4162071	0.16826042	1.3181471	1.4500175	0.00063259657	1.2504752	1.0578017	-0.19221702	1.3165325	1.0439241	0.25509006	1.3189725	0.8185923	-0.26944761	1.5649934	0.91739853	0.23783665
